<svg width="33" height="28" viewBox="0 0 33 28" fill="none" xmlns="http://www.w3.org/2000/svg">
<path d="M13.0771 0.324615C11.286 0.75621 8.41588 2.1589 7.38005 3.10841C6.88371 3.54001 6.47369 3.79897 6.47369 3.66949C6.47369 2.80629 5.30838 4.79164 5.07101 6.04326C4.96311 6.69066 4.74731 6.88488 3.71148 7.42437C-0.0649903 9.38814 -1.05766 13.0351 1.18664 16.5958L1.79087 17.5669L2.07141 16.1858C2.24405 15.4089 2.45985 14.6968 2.58933 14.5673C2.69723 14.4594 3.30146 14.3731 3.92728 14.3947C4.55309 14.4162 5.58892 14.3083 6.19316 14.1357L7.33689 13.8336L7.9627 14.481C8.71799 15.2578 9.17117 16.7037 8.95537 17.6964C8.71799 18.8401 7.61742 20.6312 6.21474 22.1202C4.81205 23.6308 4.89837 23.8035 6.68949 23.1776C7.18583 23.005 7.639 22.8539 7.68216 22.8539C7.72532 22.8539 7.76848 23.5013 7.76848 24.2782V25.7025L8.73957 24.6451L9.68909 23.6092L9.55961 25.0551C9.47329 26.0478 9.51645 26.5225 9.66751 26.5225C9.79698 26.5225 10.466 25.8967 11.1565 25.1198L12.4081 23.7171L12.6671 25.3572C12.7966 26.2635 12.9692 27.062 13.0555 27.1267C13.2282 27.2994 14.0482 26.3283 14.8251 25.0551C15.1272 24.5372 15.4509 24.1919 15.5588 24.2998C15.6451 24.3861 15.8609 25.1414 16.012 25.9614L16.3141 27.4504L16.8967 26.7167C17.1989 26.3067 17.6305 25.5946 17.8031 25.1414C18.2131 24.1919 18.1484 24.1703 19.4863 26.1772C20.6516 27.9468 20.6948 27.9036 20.9106 24.9256L21.0401 22.8971L22.8743 24.3861C23.867 25.2061 24.7518 25.8751 24.8165 25.8751C24.9676 25.8751 24.7734 24.0192 24.4928 22.5734L24.3418 21.7534L25.3992 22.4008C25.9818 22.7676 27.2119 23.3934 28.1398 23.825C30.0388 24.6882 29.9957 24.7961 29.003 22.336C28.7225 21.6239 28.4851 21.0197 28.4851 20.9765C28.4851 20.9549 28.9383 21.1923 29.5209 21.5376C30.5783 22.2065 32.7363 22.9834 32.9305 22.7892C32.9953 22.7245 32.5421 21.6886 31.9379 20.4802C30.902 18.4301 30.8589 18.279 31.3336 18.4085C32.4558 18.7322 33.06 18.8185 32.9953 18.6243C32.9521 18.5164 32.5421 17.7179 32.0889 16.8548C31.6358 15.9916 31.0963 14.8262 30.8805 14.2652C30.6431 13.7041 30.2978 12.8625 30.1252 12.3877L29.7799 11.5245L30.9884 12.8193C31.6789 13.5315 32.1537 13.9199 32.0674 13.6825C31.2905 11.5893 30.9884 10.9203 30.341 9.90605C29.931 9.25866 29.6288 8.69758 29.672 8.65442C29.7152 8.61126 29.9741 8.71916 30.2546 8.91338C32.1537 10.2513 29.7799 7.10068 27.5572 5.33113L26.4998 4.5111H27.2982C27.7514 4.5111 28.0319 4.42478 27.9456 4.2953C27.6866 3.88528 24.9892 2.50418 23.047 1.81362C21.968 1.42518 21.2127 1.05833 21.3853 1.01517C22.2701 0.691471 20.9537 0.518833 17.8247 0.518833C15.0193 0.518833 14.3719 0.475672 14.6524 0.259874C15.1056 -0.106983 14.7603 -0.0854015 13.0771 0.324615ZM12.4945 1.5115C12.0413 1.89994 12.0197 1.9431 12.4081 1.81362C13.8971 1.33887 15.6883 1.05833 17.4794 1.07991C19.3568 1.07991 19.4863 1.10149 18.99 1.38202C18.4721 1.68414 18.5152 1.68414 19.7021 1.70572C21.0616 1.70572 23.5002 2.41785 25.205 3.32421L26.2192 3.84212L25.4208 3.8637C24.9676 3.8637 24.6007 3.92844 24.6007 4.01476C24.6007 4.12266 25.0755 4.44636 25.6366 4.74848C26.845 5.41745 29.2188 7.31647 29.0462 7.48911C28.9814 7.53227 28.3556 7.35963 27.6866 7.05752C26.5429 6.56118 25.0323 6.12958 25.0323 6.3238C25.0323 6.36696 25.615 6.60434 26.3271 6.8633C27.6866 7.35963 29.003 8.61126 29.9957 10.3808L30.492 11.244L29.0678 10.1434C27.7298 9.08602 25.3992 7.74807 24.9244 7.74807C24.8165 7.74807 25.2481 8.05019 25.8955 8.39546C27.7514 9.40972 28.7225 10.6182 29.8878 13.402C30.4489 14.7399 31.1394 16.2937 31.42 16.8548C31.7221 17.459 31.8516 17.8906 31.7005 17.8906C31.0315 17.8906 30.2115 17.0058 29.1325 15.1499C28.4851 14.0278 27.8593 13.0351 27.7298 12.9272C27.6219 12.8193 28.5067 14.7831 29.7367 17.2863C30.9452 19.7896 31.8947 21.8828 31.8516 21.9476C31.6142 22.185 29.1972 20.7823 28.4419 19.9622C28.0103 19.4659 27.2982 18.689 26.8666 18.2143C26.2408 17.5453 26.1545 17.5021 26.4782 17.9985C27.2766 19.2285 27.2982 19.2717 26.845 19.0991C26.6292 19.0127 26.284 18.8617 26.1113 18.7969C25.9387 18.7322 26.1545 18.9912 26.6077 19.4012C27.3845 20.0701 28.3125 21.7318 28.6362 23.0266C28.7441 23.5229 28.7441 23.5229 27.2766 22.7892C26.4566 22.3576 25.2481 21.6886 24.6007 21.257C23.9533 20.847 23.3923 20.5233 23.3707 20.5449C23.3491 20.5881 23.5217 21.3218 23.7591 22.2065C24.2986 24.2566 24.2986 24.6666 23.7807 24.3861C23.5649 24.2782 22.6801 23.5229 21.8169 22.7245L20.2416 21.257L20.3064 22.8539C20.3927 25.1414 20.3279 26.1341 20.069 25.983C19.9611 25.9183 19.4432 25.163 18.9468 24.3429L18.0621 22.8108L17.5657 24.1487C16.8536 26.1341 16.7241 26.1341 16.1846 24.2782C15.9041 23.3719 15.6235 22.6381 15.5372 22.6381C15.4509 22.6381 15.1704 23.1129 14.9114 23.6956C14.6309 24.2782 14.1777 25.0119 13.9187 25.3572L13.4224 25.983L13.2713 25.4219C13.2066 25.1198 13.0771 24.2135 12.9908 23.3934L12.8397 21.926L12.0197 23.1129C11.5881 23.7603 10.9839 24.5156 10.6818 24.7961C10.1423 25.2925 10.1423 25.2925 10.1423 24.8609C10.1423 24.6019 10.3365 23.7819 10.5739 23.0266C10.8112 22.2929 11.0055 21.6239 11.0055 21.5592C11.0055 21.516 10.3581 22.0986 9.58119 22.8539C8.0706 24.3429 8.02744 24.3214 8.63167 22.3576C8.84747 21.667 8.89063 21.6886 7.91954 22.0986C7.48794 22.2713 7.07793 22.4223 7.01319 22.4223C6.94845 22.4223 7.31531 21.7965 7.8548 21.0412C8.99853 19.4659 9.49487 18.3869 9.49487 17.5237C9.49487 17.0921 9.55961 17.0058 9.68909 17.2216C9.94804 17.6316 9.73224 18.9048 9.21433 19.9407L8.78273 20.8039L9.23591 20.3938C9.96962 19.768 10.4444 18.2574 10.2933 17.0705L10.1638 16.0563L10.5091 16.8116C10.7249 17.3295 10.8112 17.9985 10.7465 18.9696C10.6602 20.2428 10.6818 20.3075 10.9191 19.7249C11.3292 18.7538 11.286 17.0274 10.8112 16.0995C10.0775 14.632 10.8544 15.3442 11.6528 16.8548C11.8902 17.3079 12.1708 18.1711 12.2787 18.7969L12.4729 19.9407L12.4945 18.689C12.516 17.1784 12.1708 16.2937 11.1134 15.1068C10.1854 14.0925 10.2502 14.0062 11.3939 14.7399C12.3218 15.3226 13.2498 16.1858 14.1129 17.2432L14.7172 17.9985L14.2208 17.0705C13.7461 16.2074 12.0844 14.481 11.1134 13.8336C10.3581 13.3588 11.9981 13.6825 13.9835 14.4162C15.753 15.0636 16.4867 15.1499 14.9546 14.5241C13.3361 13.8552 11.4371 12.8625 11.4371 12.6898C11.4371 12.5819 11.9118 12.4956 12.4945 12.4956C13.6382 12.4956 14.2424 12.1288 14.2424 11.4166C14.2424 10.7261 13.3577 10.3592 11.1134 10.1003C9.92646 9.97079 8.84747 9.81973 8.71799 9.79815C8.58852 9.75499 8.41588 9.23708 8.37272 8.61126C8.2864 7.79123 8.11376 7.35963 7.66058 6.88488C7.16425 6.36696 7.07793 6.12958 7.18583 5.54693L7.31531 4.83479L6.88371 5.63325C6.25789 6.84172 5.2868 6.71224 5.73998 5.50377C5.80472 5.30955 5.97736 5.15849 6.12842 5.15849C6.25789 5.15849 6.53843 4.87795 6.75423 4.53268C6.94845 4.1874 7.61742 3.54001 8.20008 3.10841C9.34381 2.2668 11.9118 1.07991 12.6024 1.05833C12.9476 1.05833 12.9476 1.10149 12.4945 1.5115ZM7.33689 7.31647C7.66058 7.64017 7.76848 8.02861 7.76848 8.80548C7.76848 10.1866 8.24324 10.5534 9.94804 10.5534C11.5665 10.5534 13.5519 10.9635 13.6814 11.3519C13.854 11.7835 12.9261 12.064 11.1997 12.064C9.75383 12.064 9.25749 12.323 10.1423 12.6035C10.9407 12.8625 10.5954 13.0783 9.34381 13.1214C8.67483 13.143 7.48794 13.2941 6.71107 13.4667C4.38045 13.9631 3.71148 14.0278 3.56042 13.812C3.49568 13.6825 3.86254 13.4883 4.35887 13.3372C4.87679 13.2078 6.02052 12.8193 6.90529 12.4956C8.35114 11.9561 9.8833 11.5893 11.9765 11.3519C12.3434 11.3087 11.955 11.244 11.1134 11.244C9.7754 11.2224 8.52378 11.3951 7.25057 11.7619C6.99161 11.8482 6.90529 11.8051 7.01319 11.654C7.31531 11.1577 6.90529 10.4024 6.0421 9.81973C5.58892 9.51761 5.04943 8.97812 4.85521 8.61126C4.66099 8.26599 4.42361 7.96387 4.29413 7.96387C3.9057 7.96387 5.15732 9.56077 5.99894 10.1218C6.43053 10.424 6.81897 10.8771 6.86213 11.1361C6.94845 11.7619 6.02052 12.4309 4.83363 12.6251C3.21514 12.8625 2.17931 13.8336 1.61824 15.6247C1.48876 16.0131 1.4456 15.9916 1.14348 15.4089C0.690303 14.5457 0.517665 12.1072 0.862942 11.1145C1.35928 9.62551 2.91302 8.26599 5.2868 7.27331C6.43053 6.79856 6.81897 6.79856 7.33689 7.31647Z" fill="#C7C7C7"/>
<path d="M14.0267 5.56857C13.142 6.02175 12.1709 6.47493 11.8688 6.56125L11.3293 6.7123L11.8256 6.25913C12.5162 5.56857 12.4083 5.48225 11.6098 6.10807C11.0056 6.56125 9.45183 7.31654 9.12813 7.31654C9.06339 7.31654 9.08497 7.16548 9.14971 6.97126C9.23603 6.7123 9.17129 6.66914 8.84759 6.77704C8.35126 6.9281 8.35126 6.90652 8.63179 6.08649C8.82601 5.52541 8.82601 5.50383 8.52389 5.89227C7.6607 7.01442 8.54547 7.92077 10.2287 7.64024C10.9193 7.53234 11.1566 7.59708 11.6098 8.00709L12.1493 8.50343L11.8903 8.00709C11.7393 7.72656 11.6745 7.44602 11.7393 7.38128C11.804 7.31654 11.9119 7.42444 11.9982 7.61866C12.1925 8.11499 13.2067 8.61133 14.0483 8.61133C14.6094 8.61133 14.9331 8.39553 15.7316 7.53234C16.4221 6.77704 16.9832 6.41019 17.5874 6.25913L18.4506 6.04333L17.4795 6.10807C16.94 6.12965 16.3789 6.19439 16.2063 6.25913C16.0337 6.30229 15.861 6.17281 15.7963 5.97859C15.7316 5.65489 15.8826 5.63331 16.9832 5.71963C17.6737 5.78437 18.5153 5.93543 18.8606 6.04333C19.2059 6.15123 19.9828 6.21597 20.587 6.19439L21.6876 6.17281L20.7165 6.08649C19.7454 6.00017 19.7454 5.97859 20.2849 5.67647L20.8244 5.35278L20.1123 5.48225C19.1627 5.67647 16.12 5.15856 16.7242 4.92118C17.0695 4.7917 17.0048 4.74854 16.4005 4.74854C15.9258 4.72696 15.041 5.02908 14.0267 5.56857ZM15.2352 6.36703C15.5373 7.51076 14.5447 8.43869 13.4009 8.07183C12.7967 7.87761 12.3867 7.1439 12.7104 6.8202C12.883 6.64756 13.0341 6.7123 13.293 7.05758C13.6815 7.61866 13.8757 7.64024 14.3504 7.18706C14.6094 6.90652 14.631 6.77704 14.4152 6.51809C14.221 6.25913 14.221 6.17281 14.4799 6.00017C14.9547 5.69805 15.0842 5.76279 15.2352 6.36703Z" fill="#C7C7C7"/>
<path d="M15.9256 7.76972L14.9329 8.89187L13.7892 8.78397C12.7749 8.67607 12.7102 8.69765 13.1849 8.95661C13.4655 9.10767 14.0266 9.23715 14.415 9.25873C15.1271 9.25873 16.6809 8.58975 16.9614 8.15816C17.0477 7.98552 16.9614 8.0071 16.6161 8.17974C15.8824 8.56817 15.904 8.3308 16.7025 7.4676C17.1125 7.03601 17.3283 6.66915 17.1772 6.66915C17.0477 6.66915 16.4867 7.16549 15.9256 7.76972Z" fill="#C7C7C7"/>
<path d="M20.8025 9.69031C22.1836 9.92768 23.9747 10.6614 24.8164 11.3951L25.3558 11.8483L24.73 11.6325C24.3848 11.503 23.7158 11.3088 23.2194 11.2009L22.3347 11.0067L23.2626 11.8051C23.7589 12.2367 24.169 12.6683 24.169 12.7546C24.169 12.8194 23.6726 12.7115 23.09 12.4741C21.6657 11.9346 21.2557 11.9562 22.3131 12.5173C23.1331 12.9489 25.0321 14.74 25.0321 15.0853C25.0321 15.1716 24.5358 15.0853 23.9532 14.8479C22.3994 14.2652 22.0757 14.3084 22.7663 15.0205C23.5216 15.8406 24.1474 16.8548 24.7516 18.3007C25.2479 19.4228 25.2695 19.466 25.1616 18.6891C25.0969 18.2359 24.8164 17.3511 24.5142 16.7037C24.2121 16.0564 24.0611 15.5169 24.1905 15.5169C24.2984 15.5169 24.7732 15.7542 25.2479 16.0564C25.7227 16.3585 26.1543 16.5958 26.219 16.5958C26.4348 16.5958 25.6795 15.0205 25.14 14.3084C24.8379 13.9199 24.7085 13.5747 24.8164 13.5315C24.9458 13.4884 24.7948 13.0999 24.4927 12.6467C24.1905 12.2151 23.9963 11.8483 24.0611 11.8483C24.2984 11.8483 25.5716 12.5604 26.2838 13.0783C26.6506 13.3589 26.9743 13.5315 26.9743 13.4668C26.9743 13.0999 26.2622 12.0857 25.5285 11.3951C24.2121 10.1435 23.0036 9.62557 21.1478 9.56083L19.5293 9.49609L20.8025 9.69031Z" fill="#C7C7C7"/>
<path d="M19.2059 14.1357C19.9612 14.6536 21.3639 15.9916 21.6012 16.4447C21.7955 16.79 21.7739 16.79 21.0402 16.4447C20.1554 16.0132 19.9828 16.1211 20.2633 16.8979C20.5438 17.6101 20.4144 17.6101 19.6806 16.8979C19.3569 16.5958 18.8174 16.2074 18.4506 16.0132C17.9111 15.7326 17.9543 15.8189 18.7095 16.4663C19.2059 16.8979 19.9396 17.7395 20.3065 18.3222C20.6949 18.9264 21.0402 19.4012 21.1049 19.4012C21.1481 19.4012 21.1265 18.8617 21.0402 18.2143C20.9539 17.5237 20.9754 17.0274 21.1049 17.0274C21.2128 17.0274 21.7091 17.3295 22.1839 17.6748C22.6802 18.0417 23.0903 18.279 23.0903 18.2143C23.0903 17.9122 22.1839 16.38 21.6444 15.7326C21.0402 15.0205 19.3138 13.7904 18.9038 13.7904C18.7743 13.7904 18.9253 13.9415 19.2059 14.1357Z" fill="#C7C7C7"/>
<path d="M17.1341 18.4302C17.5873 18.8834 18.0404 19.6386 18.2562 20.3724C18.6878 21.7535 18.99 21.5808 18.99 19.9623C18.99 18.9697 18.9684 18.9265 18.6663 19.3149C18.4936 19.5307 18.3426 19.6171 18.3426 19.466C18.3426 19.1423 16.8967 17.6749 16.5946 17.6749C16.4867 17.6749 16.7241 18.0202 17.1341 18.4302Z" fill="#C7C7C7"/>
<path d="M5.61011 8.69761C5.61011 8.87025 5.91222 9.10762 6.2575 9.2371C7.0128 9.49606 7.12069 9.21552 6.43014 8.74077C5.82591 8.30917 5.61011 8.30917 5.61011 8.69761Z" fill="#C7C7C7"/>
</svg>
