<svg width="24" height="24" viewBox="0 0 24 24" fill="none" xmlns="http://www.w3.org/2000/svg">
<path d="M12 22.08C11.7 22.08 11.4 22.01 11.15 21.87C9.28 20.85 5.99 19.77 3.93 19.5L3.64 19.46C2.33 19.3 1.25 18.07 1.25 16.74V4.66001C1.25 3.87001 1.56 3.15001 2.13 2.63001C2.7 2.11001 3.44 1.86001 4.22 1.93001C6.42 2.10001 9.74 3.20001 11.62 4.38001L11.86 4.52001C11.93 4.56001 12.08 4.56001 12.14 4.53001L12.3 4.43001C14.18 3.25001 17.5 2.13001 19.71 1.94001C19.73 1.94001 19.81 1.94001 19.83 1.94001C20.56 1.87001 21.31 2.13001 21.87 2.65001C22.44 3.17001 22.75 3.89001 22.75 4.68001V16.75C22.75 18.09 21.67 19.31 20.35 19.47L20.02 19.51C17.96 19.78 14.66 20.87 12.83 21.88C12.59 22.02 12.3 22.08 12 22.08ZM3.98 3.42001C3.66 3.42001 3.37 3.53001 3.14 3.74001C2.89 3.97001 2.75 4.30001 2.75 4.66001V16.74C2.75 17.33 3.26 17.9 3.83 17.98L4.13 18.02C6.38 18.32 9.83 19.45 11.83 20.54C11.92 20.58 12.05 20.59 12.1 20.57C14.1 19.46 17.57 18.32 19.83 18.02L20.17 17.98C20.74 17.91 21.25 17.33 21.25 16.74V4.67001C21.25 4.30001 21.11 3.98001 20.86 3.74001C20.6 3.51001 20.27 3.40001 19.9 3.42001C19.88 3.42001 19.8 3.42001 19.78 3.42001C17.87 3.59001 14.79 4.62001 13.11 5.67001L12.95 5.78001C12.4 6.12001 11.62 6.12001 11.09 5.79001L10.85 5.65001C9.14 4.60001 6.06 3.58001 4.1 3.42001C4.06 3.42001 4.02 3.42001 3.98 3.42001Z" fill="url(#paint0_linear_1_447)"/>
<path d="M12 21.24C11.59 21.24 11.25 20.9 11.25 20.49V5.48999C11.25 5.07999 11.59 4.73999 12 4.73999C12.41 4.73999 12.75 5.07999 12.75 5.48999V20.49C12.75 20.91 12.41 21.24 12 21.24Z" fill="url(#paint1_linear_1_447)"/>
<path d="M7.75 9.24C7.34 9.24 6.99655 8.97722 6.5 9C6.09881 9.01841 5.91 9.24 5.5 9.24C5.09 9.24 4.75 8.9 4.75 8.49C4.75 7.74546 5.91885 7.52666 6.5 7.49999C7.1031 7.47232 8.5 7.67969 8.5 8.49C8.5 8.9 8.16 9.24 7.75 9.24Z" fill="url(#paint2_linear_1_447)"/>
<path d="M16.4907 13C16.234 13 15.9914 12.9388 15.7703 12.8232C15.2853 12.5511 15 12.007 15 11.3201V9.68784C15 9.00092 15.2853 8.45003 15.7775 8.17798C16.2696 7.90594 16.9116 7.94675 17.5321 8.2936L19.0157 9.10974C19.6362 9.4498 20 9.95989 20 10.504C20 11.0481 19.6362 11.5582 19.0086 11.8982L17.525 12.7144C17.1826 12.9048 16.826 13 16.4907 13ZM16.4979 9.02133C16.4265 9.02133 16.3623 9.03493 16.3124 9.06213C16.1626 9.14375 16.0699 9.37499 16.0699 9.68784V11.3201C16.0699 11.6262 16.1626 11.8574 16.3124 11.9458C16.4622 12.0274 16.719 11.9866 16.9971 11.8302L18.4807 11.0141C18.7589 10.8576 18.9301 10.6672 18.9301 10.504C18.9301 10.3407 18.766 10.1503 18.4807 9.99389L17.5 9.5C17.3146 9.39798 16.6334 9.02133 16.4979 9.02133Z" fill="url(#paint3_linear_1_447)"/>
<path d="M8.5 12.24C8.5 12.24 7.59324 12 7 12C6.40676 12 5.5 12.24 5.5 12.24C5.09 12.24 4.75 11.9 4.75 11.49C4.75 10.6036 6.36277 10.5 7 10.5C7.62342 10.5 9.25 10.5802 9.25 11.49C9.25 11.9 8.91 12.24 8.5 12.24Z" fill="url(#paint4_linear_1_447)"/>
<defs>
<linearGradient id="paint0_linear_1_447" x1="12" y1="1.91846" x2="12" y2="22.08" gradientUnits="userSpaceOnUse">
<stop offset="0.25" stop-color="#C7C7C7"/>
<stop offset="1" stop-color="#6B6B6B"/>
</linearGradient>
<linearGradient id="paint1_linear_1_447" x1="12" y1="4.73999" x2="12" y2="21.24" gradientUnits="userSpaceOnUse">
<stop offset="0.25" stop-color="#C7C7C7"/>
<stop offset="1" stop-color="#6B6B6B"/>
</linearGradient>
<linearGradient id="paint2_linear_1_447" x1="6.625" y1="7.49762" x2="6.625" y2="9.24" gradientUnits="userSpaceOnUse">
<stop offset="0.25" stop-color="#C7C7C7"/>
<stop offset="1" stop-color="#6B6B6B"/>
</linearGradient>
<linearGradient id="paint3_linear_1_447" x1="17.5" y1="8" x2="17.5" y2="13" gradientUnits="userSpaceOnUse">
<stop offset="0.25" stop-color="#C7C7C7"/>
<stop offset="1" stop-color="#6B6B6B"/>
</linearGradient>
<linearGradient id="paint4_linear_1_447" x1="7" y1="10.5" x2="7" y2="12.24" gradientUnits="userSpaceOnUse">
<stop offset="0.25" stop-color="#C7C7C7"/>
<stop offset="1" stop-color="#6B6B6B"/>
</linearGradient>
</defs>
</svg>
