<svg width="22" height="19" viewBox="0 0 22 19" fill="none" xmlns="http://www.w3.org/2000/svg">
<g opacity="0.8">
<path d="M14.25 17.75H14.75C18.75 17.75 20.75 16.75 20.75 11.75V6.75C20.75 2.75 18.75 0.75 14.75 0.75H6.75C2.75 0.75 0.75 2.75 0.75 6.75V11.75C0.75 15.75 2.75 17.75 6.75 17.75H7.25C10.1559 17.75 11.7521 17.75 14.25 17.75Z" stroke="url(#paint0_linear_1_482)" stroke-width="1.5" stroke-miterlimit="10" stroke-linecap="round" stroke-linejoin="round"/>
<path d="M14.75 7.75L16.75 9.75L14.75 11.75" stroke="url(#paint1_linear_1_482)" stroke-width="1.5" stroke-miterlimit="10" stroke-linecap="round" stroke-linejoin="round"/>
<path d="M6.75 7.75L4.75 9.75L6.75 11.75" stroke="url(#paint2_linear_1_482)" stroke-width="1.5" stroke-miterlimit="10" stroke-linecap="round" stroke-linejoin="round"/>
<path d="M9.75 6.75L11.75 11.41" stroke="url(#paint3_linear_1_482)" stroke-width="1.5" stroke-miterlimit="10" stroke-linecap="round" stroke-linejoin="round"/>
</g>
<defs>
<linearGradient id="paint0_linear_1_482" x1="10.75" y1="0.75" x2="10.75" y2="17.75" gradientUnits="userSpaceOnUse">
<stop offset="0.25" stop-color="#C7C7C7"/>
<stop offset="1" stop-color="#6B6B6B"/>
</linearGradient>
<linearGradient id="paint1_linear_1_482" x1="15.75" y1="7.75" x2="15.75" y2="11.75" gradientUnits="userSpaceOnUse">
<stop offset="0.25" stop-color="#C7C7C7"/>
<stop offset="1" stop-color="#6B6B6B"/>
</linearGradient>
<linearGradient id="paint2_linear_1_482" x1="5.75" y1="7.75" x2="5.75" y2="11.75" gradientUnits="userSpaceOnUse">
<stop offset="0.25" stop-color="#C7C7C7"/>
<stop offset="1" stop-color="#6B6B6B"/>
</linearGradient>
<linearGradient id="paint3_linear_1_482" x1="10.75" y1="6.75" x2="10.75" y2="11.41" gradientUnits="userSpaceOnUse">
<stop offset="0.25" stop-color="#C7C7C7"/>
<stop offset="1" stop-color="#6B6B6B"/>
</linearGradient>
</defs>
</svg>
